<?xml version="1.0" encoding="utf-8"?>
<!-- Generator: Adobe Illustrator 19.2.1, SVG Export Plug-In . SVG Version: 6.00 Build 0)  -->
<svg version="1.1" id="Capa_1" xmlns="https://www.w3.org/2000/svg" xmlns:xlink="https://www.w3.org/1999/xlink" x="0px" y="0px"
	 viewBox="0 0 292.1 272.8" style="enable-background:new 0 0 292.1 272.8;" xml:space="preserve">
<style type="text/css">
	.st0{fill:#FFFFFF;}
</style>
<g>
	<path class="st0" d="M393.7,200.7V83.3c0.3-0.1,0.6-0.3,0.9-0.4c5.7-1.9,8.7-8.1,6.8-13.8c-1.9-5.7-8.1-8.7-13.8-6.8
		c-44.7,15.2-79,49.3-95.5,91.5C269.2,95.5,212.4,54,146.1,54S23,95.5,0,153.8c-16.5-42.2-50.8-76.2-95.5-91.4
		c-5.7-1.9-11.9,1.1-13.8,6.8c-2,5.7,1.1,11.9,6.8,13.8c0.3,0.1,0.6,0.2,0.9,0.4v117.3c-4.7,1.2-8.2,5.3-8.2,10.3
		c0,6,4.9,10.9,10.9,10.9h62v50.9h73.7v-50.9h218.5v50.9H329v-50.9h62c6,0,10.9-4.9,10.9-10.9C401.9,206,398.4,201.9,393.7,200.7z
		 M388.3,85.4v114.7h-18.2V94.3C375.9,90.9,381.9,87.9,388.3,85.4z M346.5,111.7c5.6-5.2,11.7-10,18.2-14.2v102.6h-18.2V111.7z
		 M341.1,117v83.1h-18.2v-59.7C328.1,132,334.2,124.1,341.1,117z M303.5,200.1c1.4-17.7,6.3-34.6,14-49.9v49.9H303.5z M266.8,200.1
		v-49.5c7.6,15.1,12.4,31.8,13.9,49.5H266.8z M261.4,140.8v59.3h-18.2v-82.9C250.1,124.4,256.2,132.3,261.4,140.8z M54.3,112
		c5.6-5.2,11.7-10,18.2-14.3v102.4H54.3V112z M77.9,94.4c5.8-3.4,11.9-6.4,18.2-8.9v114.6H77.9V94.4z M101.5,83.5
		c5.9-2.1,11.9-3.8,18.2-5.1v121.7h-18.2V83.5z M125.2,77.6c5.9-0.9,12-1.5,18.2-1.7v124.2h-18.2V77.6z M148.8,75.9
		C155,76,161,76.6,167,77.6v122.5h-18.2V75.9L148.8,75.9z M172.4,78.4c6.2,1.2,12.3,3,18.2,5.1v116.6h-18.2V78.4z M196,85.5
		c6.3,2.5,12.4,5.5,18.2,8.9v105.7H196V85.5z M219.6,97.7c6.5,4.2,12.5,9,18.2,14.3v88.1h-18.2V97.7z M48.9,117.2v82.9H30.7v-59.3
		C35.9,132.3,42,124.4,48.9,117.2z M11.4,200.1c1.4-17.7,6.3-34.4,13.9-49.5v49.5H11.4z M-25.4,200.1v-49.8
		c7.7,15.3,12.6,32.2,14,49.8H-25.4z M-30.8,140.5v59.6H-49V117C-42.1,124.2-36,132-30.8,140.5z M-54.4,200.1h-18.2V97.6
		c6.5,4.2,12.6,9,18.2,14.2L-54.4,200.1L-54.4,200.1z M-78,94.3v105.8h-18.2V85.5C-89.9,88-83.8,91-78,94.3z"/>
</g>
</svg>
